<svg width="58" height="46" viewBox="0 0 58 46" fill="none" xmlns="http://www.w3.org/2000/svg">
<path d="M4.158 18.144C3.438 18.144 2.802 17.97 2.25 17.622C1.698 17.262 1.266 16.764 0.954 16.128C0.654 15.48 0.504 14.736 0.504 13.896H2.214C2.214 14.712 2.388 15.372 2.736 15.876C3.096 16.368 3.57 16.614 4.158 16.614H5.67C6.282 16.614 6.768 16.356 7.128 15.84C7.488 15.324 7.668 14.616 7.668 13.716V5.4H9.378V13.752C9.378 15.108 9.048 16.182 8.388 16.974C7.74 17.754 6.846 18.144 5.706 18.144H4.158ZM19.3665 18.144C18.4905 18.144 17.7165 17.952 17.0445 17.568C16.3845 17.184 15.8685 16.644 15.4965 15.948C15.1365 15.252 14.9565 14.442 14.9565 13.518V9.882C14.9565 8.958 15.1365 8.148 15.4965 7.452C15.8685 6.756 16.3905 6.216 17.0625 5.832C17.7345 5.448 18.5085 5.256 19.3845 5.256H21.2925C22.1685 5.256 22.9365 5.448 23.5965 5.832C24.2685 6.216 24.7845 6.756 25.1445 7.452C25.5165 8.148 25.7025 8.958 25.7025 9.882V13.518C25.7025 14.442 25.5165 15.252 25.1445 15.948C24.7845 16.644 24.2685 17.184 23.5965 17.568C22.9245 17.952 22.1565 18.144 21.2925 18.144H19.3665ZM21.2565 16.614C22.0725 16.614 22.7325 16.332 23.2365 15.768C23.7405 15.192 23.9925 14.43 23.9925 13.482V9.918C23.9925 8.97 23.7405 8.214 23.2365 7.65C22.7325 7.074 22.0725 6.786 21.2565 6.786H19.4025C18.5865 6.786 17.9265 7.074 17.4225 7.65C16.9185 8.214 16.6665 8.97 16.6665 9.918V13.482C16.6665 14.43 16.9125 15.192 17.4045 15.768C17.9085 16.332 18.5685 16.614 19.3845 16.614H21.2565ZM34.8299 18.144C33.6659 18.144 32.7359 17.796 32.0399 17.1C31.3439 16.404 30.9959 15.468 30.9959 14.292H32.6699C32.6699 15 32.8679 15.564 33.2639 15.984C33.6719 16.404 34.2059 16.614 34.8659 16.614H36.8639C37.5239 16.614 38.0519 16.476 38.4479 16.2C38.8439 15.912 39.0419 15.534 39.0419 15.066V14.094C39.0419 13.722 38.8979 13.41 38.6099 13.158C38.3339 12.906 37.9379 12.738 37.4219 12.654L34.1459 12.114C33.1859 11.958 32.4419 11.628 31.9139 11.124C31.3979 10.62 31.1399 9.99 31.1399 9.234V8.244C31.1399 7.344 31.4819 6.624 32.1659 6.084C32.8619 5.532 33.7739 5.256 34.9019 5.256H36.9359C37.6439 5.256 38.2679 5.406 38.8079 5.706C39.3599 5.994 39.7859 6.408 40.0859 6.948C40.3859 7.476 40.5359 8.088 40.5359 8.784H38.8439C38.8439 8.184 38.6699 7.704 38.3219 7.344C37.9739 6.972 37.5119 6.786 36.9359 6.786H34.9019C34.2899 6.786 33.7919 6.924 33.4079 7.2C33.0359 7.464 32.8499 7.83 32.8499 8.298V9.108C32.8499 9.492 32.9819 9.81 33.2459 10.062C33.5219 10.314 33.9119 10.488 34.4159 10.584L37.6559 11.142C38.6519 11.31 39.4139 11.64 39.9419 12.132C40.4819 12.612 40.7519 13.218 40.7519 13.95V15.12C40.7519 16.032 40.3979 16.764 39.6899 17.316C38.9939 17.868 38.0639 18.144 36.8999 18.144H34.8299ZM46.3088 5.4H48.0188V10.908H54.6068V5.4H56.3348V18H54.6068V12.42H48.0188V18H46.3088V5.4Z" fill="#ECECE8"/>
<path d="M4.122 41C3.714 41 3.372 40.898 3.096 40.694C2.82 40.49 2.628 40.124 2.52 39.596L0.288 28.4H2.808L4.356 37.346H4.392L7.002 29.066H7.902C8.202 29.066 8.46 29.144 8.676 29.3C8.904 29.456 9.078 29.738 9.198 30.146L11.394 37.328H11.43L12.978 28.4H15.498L13.248 39.596C13.152 40.076 12.972 40.43 12.708 40.658C12.456 40.886 12.108 41 11.664 41H10.62L7.938 32.36H7.902L5.166 41H4.122ZM26.0847 38.066H21.3687L20.2527 41H17.6607L22.5927 28.4H23.7087C24.4887 28.4 25.0167 28.76 25.2927 29.48L29.7747 41H27.1827L26.0847 38.066ZM22.0347 35.978H25.4187L23.7447 31.442H23.7267L22.0347 35.978ZM41.0366 38.066H36.3206L35.2046 41H32.6126L37.5446 28.4H38.6606C39.4406 28.4 39.9686 28.76 40.2446 29.48L44.7266 41H42.1346L41.0366 38.066ZM36.9866 35.978H40.3706L38.6966 31.442H38.6786L36.9866 35.978ZM50.2905 36.104L45.6285 28.4H48.3285L51.5325 33.818L54.7365 28.4H57.4365L52.7745 36.104V41H50.2905V36.104Z" fill="#A01703"/>
</svg>
