<svg width="11" height="11" viewBox="0 0 11 11" fill="none" xmlns="http://www.w3.org/2000/svg">
<path d="M0.219727 4.72207C-0.0732422 5.01504 -0.0732422 5.49082 0.219727 5.78379L4.71973 10.2838C5.0127 10.5768 5.48848 10.5768 5.78145 10.2838C6.07441 9.99082 6.07441 9.51504 5.78145 9.22207L1.81113 5.25176L5.7791 1.28145C6.07207 0.988476 6.07207 0.512695 5.7791 0.219727C5.48613 -0.0732422 5.01035 -0.0732422 4.71738 0.219727L0.217383 4.71973L0.219727 4.72207ZM9.21973 0.22207L4.71973 4.72207C4.42676 5.01504 4.42676 5.49082 4.71973 5.78379L9.21973 10.2838C9.5127 10.5768 9.98848 10.5768 10.2814 10.2838C10.5744 9.99082 10.5744 9.51504 10.2814 9.22207L6.31113 5.25176L10.2791 1.28145C10.5721 0.988476 10.5721 0.512695 10.2791 0.219727C9.98613 -0.0732422 9.51035 -0.0732422 9.21738 0.219727L9.21973 0.22207Z" fill="#ECECE8"/>
</svg>
