<svg width="12" height="12" viewBox="0 0 12 12" fill="none" xmlns="http://www.w3.org/2000/svg">
<path d="M11.0303 6.52793C11.3232 6.23496 11.3232 5.75918 11.0303 5.46621L6.53027 0.966211C6.23731 0.673242 5.76152 0.673242 5.46855 0.966211C5.17559 1.25918 5.17559 1.73496 5.46855 2.02793L9.43887 5.99824L5.4709 9.96855C5.17793 10.2615 5.17793 10.7373 5.4709 11.0303C5.76387 11.3232 6.23965 11.3232 6.53262 11.0303L11.0326 6.53027L11.0303 6.52793ZM2.03027 11.0279L6.53027 6.52793C6.82324 6.23496 6.82324 5.75918 6.53027 5.46621L2.03027 0.96621C1.7373 0.673242 1.26152 0.673242 0.968554 0.96621C0.675586 1.25918 0.675585 1.73496 0.968554 2.02793L4.93887 5.99824L0.970897 9.96855C0.677929 10.2615 0.677929 10.7373 0.970897 11.0303C1.26387 11.3232 1.73965 11.3232 2.03262 11.0303L2.03027 11.0279Z" fill="#EFD0A8"/>
</svg>
